<?xml version="1.0" encoding="UTF-8"?>
<svg id="Camada_2" data-name="Camada 2" xmlns="http://www.w3.org/2000/svg" viewBox="0 0 1235.37 359.76">
  <defs>
    <style>
      .cls-1 {
        fill: #0052e2;
      }
    </style>
  </defs>
  <g id="Objects">
    <g>
      <path class="cls-1" d="m593.78,325.28c-6.67,0-12.47-1.74-17.4-5.2-4.94-3.46-9-8.8-12.2-16l-63.6-147.6c-2.4-5.86-3.27-11.33-2.6-16.4.66-5.06,3.06-9.13,7.2-12.2,4.13-3.06,9.8-4.6,17-4.6,6.13,0,11.06,1.4,14.8,4.2,3.73,2.8,7.06,8.07,10,15.8l54,134.8h-12l55.6-135.2c2.93-7.46,6.33-12.6,10.2-15.4,3.86-2.8,9.13-4.2,15.8-4.2,5.86,0,10.53,1.54,14,4.6,3.46,3.07,5.6,7.07,6.4,12,.8,4.94-.14,10.34-2.8,16.2l-64.8,148c-2.94,7.2-6.87,12.54-11.8,16-4.94,3.46-10.87,5.2-17.8,5.2Z"/>
      <path class="cls-1" d="m750.18,86.48c-9.34,0-16.6-2.33-21.8-7-5.2-4.66-7.8-11.13-7.8-19.4s2.6-15.06,7.8-19.6c5.2-4.53,12.46-6.8,21.8-6.8s16.93,2.27,22,6.8c5.06,4.54,7.6,11.07,7.6,19.6s-2.54,14.74-7.6,19.4c-5.07,4.67-12.4,7-22,7Zm0,238.4c-8,0-14.14-2.4-18.4-7.2-4.27-4.8-6.4-11.46-6.4-20v-146.8c0-8.8,2.13-15.53,6.4-20.2,4.26-4.66,10.4-7,18.4-7s14.2,2.34,18.6,7c4.4,4.67,6.6,11.4,6.6,20.2v146.8c0,8.54-2.14,15.2-6.4,20-4.27,4.8-10.54,7.2-18.8,7.2Z"/>
      <path class="cls-1" d="m902.57,326.08c-17.07,0-32.07-4.13-45-12.4-12.94-8.26-23-20.06-30.2-35.4-7.2-15.33-10.8-33.4-10.8-54.2s3.6-39.13,10.8-54.2c7.2-15.06,17.26-26.73,30.2-35,12.93-8.26,27.93-12.4,45-12.4s30.46,4,42.6,12c12.13,8,20.33,18.54,24.6,31.6h-4.4V62.08c0-8.26,2.13-14.53,6.4-18.8,4.26-4.26,10.4-6.4,18.4-6.4s14.2,2.14,18.6,6.4c4.4,4.27,6.6,10.54,6.6,18.8v237.6c0,8.27-2.14,14.6-6.4,19-4.27,4.4-10.4,6.6-18.4,6.6s-14.14-2.2-18.4-6.6c-4.27-4.4-6.4-10.73-6.4-19v-31.2l4.4,12c-4,13.87-12.14,24.94-24.4,33.2-12.27,8.27-26.67,12.4-43.2,12.4Zm14-38c9.86,0,18.53-2.4,26-7.2,7.46-4.8,13.26-11.93,17.4-21.4,4.13-9.46,6.2-21.26,6.2-35.4,0-21.33-4.54-37.26-13.6-47.8-9.07-10.53-21.07-15.8-36-15.8-9.87,0-18.54,2.34-26,7-7.47,4.67-13.27,11.74-17.4,21.2-4.14,9.47-6.2,21.27-6.2,35.4,0,21.07,4.53,37,13.6,47.8,9.06,10.8,21.06,16.2,36,16.2Z"/>
      <path class="cls-1" d="m1131.77,326.08c-14.14,0-26.74-2.74-37.8-8.2-11.07-5.46-19.74-12.86-26-22.2-6.27-9.33-9.4-19.86-9.4-31.6,0-14.4,3.73-25.8,11.2-34.2,7.46-8.4,19.6-14.46,36.4-18.2,16.8-3.73,39.33-5.6,67.6-5.6h20v28.8h-19.6c-16.54,0-29.74.8-39.6,2.4-9.87,1.6-16.87,4.34-21,8.2-4.14,3.87-6.2,9.27-6.2,16.2,0,8.8,3.06,16,9.2,21.6,6.13,5.6,14.66,8.4,25.6,8.4,8.8,0,16.6-2.06,23.4-6.2,6.8-4.13,12.2-9.8,16.2-17,4-7.2,6-15.46,6-24.8v-46c0-13.33-2.94-22.93-8.8-28.8-5.87-5.86-15.74-8.8-29.6-8.8-7.74,0-16.07.94-25,2.8-8.94,1.87-18.34,5.07-28.2,9.6-5.07,2.4-9.54,3.07-13.4,2-3.87-1.06-6.87-3.26-9-6.6-2.14-3.33-3.2-7-3.2-11s1.06-7.93,3.2-11.8c2.13-3.86,5.73-6.73,10.8-8.6,12.26-5.06,24.06-8.66,35.4-10.8,11.33-2.13,21.66-3.2,31-3.2,19.2,0,35,2.94,47.4,8.8,12.4,5.87,21.66,14.74,27.8,26.6,6.13,11.87,9.2,27.14,9.2,45.8v96c0,8.27-2,14.6-6,19-4,4.4-9.74,6.6-17.2,6.6s-13.27-2.2-17.4-6.6c-4.14-4.4-6.2-10.73-6.2-19v-19.2h3.2c-1.87,9.34-5.54,17.4-11,24.2-5.47,6.8-12.34,12.07-20.6,15.8-8.27,3.73-17.74,5.6-28.4,5.6Z"/>
    </g>
    <path class="cls-1" d="m.01,219.94c.54,22.64,19.11,41.02,41.76,41.35,9.31.13,17.95-2.74,25-7.7,4.74-3.34,11.27.11,11.27,5.9v59.45c0,22.54,18.27,40.82,40.82,40.82h200.08c22.54,0,40.81-18.27,40.81-40.81v-59.46c0-5.8-6.53-9.24-11.27-5.9-7.05,4.97-15.69,7.84-25,7.7-22.64-.33-41.22-18.71-41.76-41.35-.57-23.89,18.62-43.44,42.38-43.44,9.08,0,17.49,2.85,24.39,7.71,4.73,3.34,11.26-.12,11.26-5.91v-59.45c0-22.54-18.27-40.81-40.81-40.81h-59.45c-5.79,0-9.25-6.53-5.91-11.27,4.86-6.9,7.71-15.31,7.71-24.39,0-23.76-19.56-42.96-43.46-42.38-22.64.55-41.01,19.14-41.32,41.78-.13,9.3,2.74,17.93,7.7,24.98,3.34,4.74-.1,11.28-5.9,11.28h-59.45c-22.54,0-40.82,18.27-40.82,40.82v59.44c0,5.79-6.53,9.25-11.26,5.91-6.9-4.86-15.31-7.71-24.39-7.71-23.76,0-42.95,19.55-42.38,43.44Z"/>
  </g>
</svg>