<?xml version="1.0" encoding="UTF-8"?>
<svg id="Camada_2" data-name="Camada 2" xmlns="http://www.w3.org/2000/svg" viewBox="0 0 359.76 359.76">
  <g id="Objects">
    <path d="m.01,219.94c.54,22.64,19.11,41.02,41.76,41.35,9.31.13,17.95-2.74,25-7.7,4.74-3.34,11.27.11,11.27,5.9v59.45c0,22.54,18.27,40.82,40.82,40.82h200.08c22.54,0,40.81-18.27,40.81-40.81v-59.46c0-5.8-6.53-9.24-11.27-5.9-7.05,4.97-15.69,7.84-25,7.7-22.64-.33-41.22-18.71-41.76-41.35-.57-23.89,18.62-43.44,42.38-43.44,9.08,0,17.49,2.85,24.39,7.71,4.73,3.34,11.26-.12,11.26-5.91v-59.45c0-22.54-18.27-40.81-40.81-40.81h-59.45c-5.79,0-9.25-6.53-5.91-11.27,4.86-6.9,7.71-15.31,7.71-24.39,0-23.76-19.56-42.96-43.46-42.38-22.64.55-41.01,19.14-41.32,41.78-.13,9.3,2.74,17.93,7.7,24.98,3.34,4.74-.1,11.28-5.9,11.28h-59.45c-22.54,0-40.82,18.27-40.82,40.82v59.44c0,5.79-6.53,9.25-11.26,5.91-6.9-4.86-15.31-7.71-24.39-7.71-23.76,0-42.95,19.55-42.38,43.44Z"/>
  </g>
</svg>